<svg width="87" height="24" viewBox="0 0 87 24" fill="none" xmlns="http://www.w3.org/2000/svg">
    <path fill-rule="evenodd" clip-rule="evenodd" d="M44.7836 17.7093C45.6156 17.7528 46.4455 17.5925 47.2012 17.2421C47.9568 16.8918 48.6152 16.362 49.1187 15.6992L47.4968 14.1792C47.2119 14.6051 46.8239 14.9521 46.3688 15.188C45.9137 15.4241 45.4064 15.5415 44.8937 15.5292C42.8613 15.5292 41.4796 13.9692 41.4796 11.7592C41.4796 9.55922 42.8613 8.01921 44.8937 8.01921C45.4023 7.9978 45.9081 8.10587 46.3634 8.33328C46.8188 8.56067 47.2087 8.89994 47.4968 9.31922L49.1187 7.84922C48.6177 7.18425 47.9595 6.65359 47.203 6.3046C46.4465 5.95559 45.6153 5.79915 44.7836 5.84921C41.3595 5.84921 38.9465 8.34921 38.9465 11.7592C38.9465 15.1792 41.3495 17.7093 44.7836 17.7093ZM53.4339 17.4292V9.72921C53.9345 8.90921 55.3061 8.20922 56.3674 8.20922C56.6678 8.20922 56.9081 8.22921 57.1184 8.27921V5.83922C56.401 5.87042 55.6992 6.05855 55.0625 6.3903C54.4259 6.72206 53.87 7.18937 53.4339 7.75922V6.11921H50.971V17.4292H53.4339ZM60.0217 4.73921C60.4254 4.73921 60.8125 4.57907 61.0979 4.29401C61.3833 4.00896 61.5436 3.62234 61.5436 3.21921C61.5436 2.81608 61.3833 2.42946 61.0979 2.14441C60.8125 1.85935 60.4254 1.69922 60.0217 1.69922C59.6182 1.69922 59.2311 1.85935 58.9457 2.14441C58.6603 2.42946 58.5 2.81608 58.5 3.21921C58.5 3.62234 58.6603 4.00896 58.9457 4.29401C59.2311 4.57907 59.6182 4.73921 60.0217 4.73921ZM61.2433 17.4392V6.10922H58.7703V17.4192L61.2433 17.4392ZM68.0014 17.7093C71.045 17.7093 72.707 16.1892 72.707 14.1792C72.707 9.67922 65.8588 11.1792 65.8588 9.17921C65.8588 8.38922 66.6597 7.77921 67.9513 7.77921C69.383 7.77921 70.6246 8.38922 71.3053 9.13922L72.3366 7.40921C71.1208 6.36001 69.5575 5.80034 67.9513 5.83922C65.0879 5.83922 63.4959 7.40921 63.4959 9.25922C63.4959 13.6092 70.3442 12.0192 70.3442 14.2492C70.3442 15.1392 69.5632 15.7492 68.0914 15.7492C66.6669 15.7123 65.3057 15.1535 64.2669 14.1792L63.1456 15.9292C64.4695 17.1328 66.2121 17.7716 68.0014 17.7093ZM80.9369 17.7093C79.5052 17.7093 78.2437 17.0592 77.3025 15.8592V21.7392H74.8495V6.11921H77.3025V7.66922C77.7226 7.10132 78.2703 6.63988 78.9016 6.32203C79.5328 6.00418 80.2299 5.8388 80.9369 5.83922C83.8703 5.83922 85.9529 8.03921 85.9529 11.7592C85.9529 15.4893 83.8703 17.7093 80.9469 17.7093H80.9369ZM80.216 15.5292C82.1583 15.5292 83.4198 13.9692 83.4198 11.7592C83.4198 9.55922 82.1583 8.01921 80.216 8.01921C79.0646 8.01921 77.8732 8.66921 77.3125 9.51921V13.9893C77.6447 14.4523 78.0795 14.8324 78.5833 15.0996C79.087 15.3668 79.6458 15.5138 80.216 15.5292Z" fill="#1972F5"/>
    <path fill-rule="evenodd" clip-rule="evenodd" d="M11.5838 18.9901L16.2194 23.9101L19.8438 18.0702L29.4553 17.0201L27.9033 0.160156L0.140137 3.22016L1.702 20.0801L11.5838 18.9901Z" fill="#1972F5"/>
</svg>
